<svg xmlns="http://www.w3.org/2000/svg" viewBox="0 0 32 32" width="32" height="32">
  <!-- Background -->
  <rect width="32" height="32" rx="6" fill="#1a1a2e"/>
  <!-- Flame -->
  <path d="M12.5 26 L16 20.5 L19.5 26 Q16 29 12.5 26Z" fill="#f97316"/>
  <path d="M14 25.5 L16 21.5 L18 25.5 Q16 27.5 14 25.5Z" fill="#facc15"/>
  <!-- Fins -->
  <path d="M11 21 L8 24.5 L11 23.5 L12.5 19Z" fill="#64748b"/>
  <path d="M21 21 L24 24.5 L21 23.5 L19.5 19Z" fill="#64748b"/>
  <!-- Body -->
  <path d="M12 21 L13.5 9 Q16 4 18.5 9 L20 21Z" fill="#e2e8f0"/>
  <!-- Window -->
  <circle cx="16" cy="14" r="2.8" fill="#1a1a2e"/>
  <circle cx="16" cy="14" r="1.8" fill="#38bdf8"/>
  <!-- Nose cone -->
  <path d="M13.5 9 Q16 4 18.5 9Z" fill="#f97316"/>
</svg>
